# Blender v2.78 (sub 5) OBJ File: 'VRAvatars1.blend'
# www.blender.org
mtllib head.mtl
o head_Cube.003
v 0.188205 -0.384883 -0.039613
v 0.348745 -0.196160 -0.050108
v 0.235277 -0.406467 0.103883
v 0.345686 -0.196806 0.092159
v 0.173745 -0.439723 0.290589
v 0.184016 -0.391721 0.350560
v 0.245238 -0.224766 -0.244620
v 0.348745 -0.150044 -0.168384
v 0.239176 0.167192 -0.395858
v 0.348745 0.142102 -0.224211
v 0.231546 0.377391 -0.292770
v 0.348745 0.242034 -0.166380
v 0.231546 0.467037 -0.085724
v 0.348745 0.289718 -0.036448
v 0.238588 0.479032 0.062722
v 0.343539 0.279957 0.184956
v 0.384692 0.131343 -0.029998
v 0.387434 0.104195 0.120633
v 0.071391 -0.477889 0.374103
v 0.083608 -0.429297 0.430120
v 0.196559 -0.301167 0.388109
v 0.091934 -0.349268 0.450136
v 0.196109 -0.160432 0.395056
v 0.076365 -0.187785 0.459969
v 0.190005 0.446983 0.220535
v 0.198556 0.260008 0.380280
v 0.208971 0.110556 0.412727
v 0.214375 0.059901 0.375364
v 0.098257 0.024445 0.397178
v 0.099894 -0.026189 0.396645
v 0.208792 -0.045497 0.360685
v 0.290790 -0.022857 0.308335
v 0.289537 0.041004 0.313000
v 0.331069 0.097995 0.293910
v 0.366034 0.042654 0.244576
v 0.297888 -0.135392 0.328583
v 0.287621 -0.256112 0.305964
v 0.265458 -0.346713 0.269343
v 0.207659 -0.416696 0.223785
v 0.357331 -0.083234 0.217856
v 0.348146 -0.205499 0.202657
v 0.245238 -0.026523 -0.392215
v 0.348745 0.005361 -0.250285
v 0.391590 -0.056747 -0.057434
v 0.393844 -0.072072 0.098479
v 0.173290 0.358087 0.346900
v 0.300031 -0.329411 0.178378
v -0.188205 -0.384883 -0.039613
v -0.348745 -0.196160 -0.050108
v -0.235277 -0.406467 0.103883
v -0.345686 -0.196806 0.092159
v -0.173745 -0.439723 0.290589
v -0.184016 -0.391721 0.350560
v -0.245238 -0.224766 -0.244620
v -0.348745 -0.150044 -0.168384
v -0.239176 0.167192 -0.395858
v -0.348745 0.142102 -0.224211
v -0.231546 0.377391 -0.292770
v -0.348745 0.242034 -0.166380
v -0.231546 0.467037 -0.085724
v -0.348745 0.289718 -0.036448
v -0.238588 0.479032 0.062722
v -0.343539 0.279957 0.184956
v -0.384692 0.131343 -0.029998
v -0.387434 0.104195 0.120633
v -0.071391 -0.477889 0.374103
v -0.083608 -0.429297 0.430120
v 0.000000 -0.489970 0.374815
v 0.000000 -0.451491 0.453901
v -0.196559 -0.301167 0.388109
v -0.091934 -0.349268 0.450136
v 0.000000 -0.368656 0.480277
v -0.196109 -0.160432 0.395056
v -0.076365 -0.187785 0.459969
v 0.000000 -0.198959 0.479484
v 0.000000 -0.122838 0.543505
v 0.000000 0.032172 0.452629
v -0.190005 0.446983 0.220535
v -0.198556 0.260008 0.380280
v -0.208971 0.110556 0.412727
v 0.000000 0.261437 0.443764
v 0.000000 0.102836 0.465787
v 0.000000 0.481069 0.255393
v 0.000000 0.529423 0.065944
v 0.000000 0.518513 -0.117131
v 0.000000 0.419603 -0.326461
v 0.000000 0.185589 -0.452412
v 0.000000 -0.270714 -0.302262
v 0.000000 -0.463268 -0.067646
v 0.000000 -0.477116 0.084754
v 0.000000 -0.488575 0.276130
v -0.214375 0.059901 0.375364
v -0.098257 0.024445 0.397178
v -0.099894 -0.026189 0.396645
v -0.208792 -0.045497 0.360685
v -0.290790 -0.022857 0.308335
v -0.289537 0.041004 0.313000
v -0.331069 0.097995 0.293910
v -0.366034 0.042654 0.244576
v -0.297888 -0.135392 0.328583
v -0.287621 -0.256112 0.305964
v -0.265458 -0.346713 0.269343
v -0.207659 -0.416696 0.223785
v 0.000000 -0.477975 0.182396
v -0.357331 -0.083234 0.217856
v -0.348146 -0.205499 0.202657
v -0.245238 -0.026523 -0.392215
v -0.348745 0.005361 -0.250285
v -0.391590 -0.056747 -0.057434
v -0.393844 -0.072072 0.098479
v 0.000000 -0.032172 -0.452629
v -0.173290 0.358087 0.346900
v 0.000000 0.377183 0.398538
v -0.300031 -0.329411 0.178378
vn 0.8851 -0.4651 0.0169
vn 0.7165 -0.6469 0.2611
vn 0.7117 -0.6424 -0.2842
vn 0.8254 0.0533 -0.5620
vn 0.8307 0.2723 -0.4855
vn 0.8351 0.5094 -0.2076
vn 0.8626 0.5058 -0.0073
vn 0.9733 0.2276 0.0290
vn 0.9992 0.0380 -0.0110
vn 0.9787 0.1614 -0.1269
vn 0.9804 0.0521 -0.1898
vn 0.6021 -0.6671 0.4388
vn 0.2617 -0.8219 0.5060
vn 0.3411 -0.2736 0.8993
vn 0.6251 -0.3172 0.7132
vn 0.2851 -0.0128 0.9584
vn 0.4978 -0.0217 0.8670
vn 0.2783 -0.6182 0.7351
vn 0.8085 0.2976 0.5077
vn 0.2681 0.1765 0.9471
vn 0.7266 0.5945 0.3444
vn 0.2940 0.3602 0.8853
vn 0.2085 0.9460 0.2482
vn 0.2153 0.9739 -0.0719
vn 0.2355 0.8853 -0.4009
vn 0.2237 0.4497 -0.8647
vn 0.2346 -0.0046 -0.9721
vn 0.3288 -0.7570 -0.5646
vn 0.3437 -0.9244 -0.1654
vn 0.2870 -0.9579 -0.0124
vn 0.2444 -0.9669 -0.0726
vn 0.2569 -0.4816 0.8379
vn 0.4754 -0.1611 0.8649
vn 0.5732 0.2253 0.7879
vn 0.3817 0.2631 0.8861
vn 0.6104 -0.3273 0.7213
vn 0.7319 0.2636 0.6284
vn 0.6624 -0.1328 0.7373
vn 0.9359 0.1667 0.3104
vn 0.4975 0.1910 0.8462
vn 0.6316 -0.1105 0.7674
vn 0.2932 -0.9463 -0.1363
vn 0.2499 -0.5457 -0.7999
vn 0.9587 -0.2004 -0.2017
vn 0.9453 -0.3257 -0.0149
vn 0.7586 -0.3547 -0.5465
vn 0.9747 -0.0429 0.2192
vn 0.7332 -0.3732 0.5685
vn 0.7984 -0.0217 0.6017
vn 0.7110 0.4753 0.5182
vn 0.4919 0.0067 0.8706
vn 0.5879 -0.1067 0.8019
vn 0.2542 -0.1002 0.9620
vn 0.2507 0.7799 0.5734
vn 0.8908 -0.1387 0.4327
vn 0.8782 -0.3728 0.2996
vn 0.7123 -0.6915 0.1198
vn 0.8925 -0.4178 -0.1699
vn 0.9643 -0.2346 0.1226
vn 0.7108 -0.6228 -0.3269
vn -0.8851 -0.4651 0.0169
vn -0.7165 -0.6469 0.2611
vn -0.7117 -0.6424 -0.2842
vn -0.8254 0.0533 -0.5620
vn -0.8307 0.2723 -0.4855
vn -0.8351 0.5094 -0.2076
vn -0.8626 0.5058 -0.0073
vn -0.9733 0.2276 0.0290
vn -0.9992 0.0380 -0.0110
vn -0.9787 0.1614 -0.1269
vn -0.9804 0.0521 -0.1898
vn -0.6021 -0.6671 0.4388
vn -0.2617 -0.8219 0.5060
vn -0.3411 -0.2736 0.8993
vn -0.6251 -0.3172 0.7132
vn -0.2851 -0.0128 0.9584
vn -0.4978 -0.0217 0.8670
vn -0.2783 -0.6182 0.7351
vn -0.8085 0.2976 0.5077
vn -0.2681 0.1765 0.9471
vn -0.7266 0.5945 0.3444
vn -0.2940 0.3602 0.8853
vn -0.2085 0.9460 0.2482
vn -0.2153 0.9739 -0.0719
vn -0.2355 0.8853 -0.4009
vn -0.2237 0.4497 -0.8647
vn -0.2346 -0.0046 -0.9721
vn -0.3288 -0.7570 -0.5646
vn -0.3437 -0.9244 -0.1654
vn -0.2870 -0.9579 -0.0124
vn -0.2444 -0.9669 -0.0726
vn -0.2569 -0.4816 0.8379
vn -0.4754 -0.1611 0.8649
vn -0.5732 0.2253 0.7879
vn -0.3817 0.2631 0.8861
vn -0.6104 -0.3273 0.7213
vn -0.7319 0.2636 0.6284
vn -0.6624 -0.1328 0.7373
vn -0.9359 0.1667 0.3104
vn -0.4975 0.1910 0.8462
vn -0.6316 -0.1105 0.7674
vn -0.2932 -0.9463 -0.1363
vn -0.2499 -0.5457 -0.7999
vn -0.9587 -0.2004 -0.2017
vn -0.9453 -0.3257 -0.0149
vn -0.7586 -0.3547 -0.5465
vn -0.9747 -0.0429 0.2192
vn -0.7332 -0.3732 0.5685
vn -0.7984 -0.0217 0.6017
vn -0.7110 0.4753 0.5182
vn -0.4919 0.0067 0.8706
vn -0.5879 -0.1067 0.8019
vn -0.2542 -0.1002 0.9620
vn -0.2507 0.7799 0.5734
vn -0.8908 -0.1387 0.4327
vn -0.8782 -0.3728 0.2996
vn -0.7123 -0.6915 0.1198
vn -0.8925 -0.4178 -0.1699
vn -0.9643 -0.2346 0.1226
vn -0.7108 -0.6228 -0.3269
usemtl None
s off
f 2//1 4//1 3//1
f 39//2 38//2 6//2 5//2
f 2//3 1//3 7//3 8//3
f 43//4 42//4 9//4 10//4
f 10//5 9//5 11//5 12//5
f 12//6 11//6 13//6 14//6
f 14//7 13//7 15//7 16//7
f 18//8 17//8 14//8 16//8
f 45//9 44//9 17//9 18//9
f 10//10 12//10 14//10 17//10
f 44//11 43//11 10//11 17//11
f 5//12 6//12 20//12 19//12
f 19//13 20//13 69//13 68//13
f 69//14 20//14 22//14 72//14
f 20//15 6//15 21//15 22//15
f 72//16 22//16 24//16 75//16
f 22//17 21//17 23//17 24//17
f 75//18 24//18 76//18
f 76//19 24//19 77//19
f 26//20 81//20 82//20 27//20
f 16//21 15//21 25//21
f 113//22 81//22 26//22 46//22
f 15//23 84//23 83//23 25//23
f 13//24 85//24 84//24 15//24
f 11//25 86//25 85//25 13//25
f 9//26 87//26 86//26 11//26
f 42//27 111//27 87//27 9//27
f 1//28 89//28 88//28 7//28
f 3//29 90//29 89//29 1//29
f 104//30 90//30 3//30 39//30
f 5//31 19//31 68//31 91//31
f 82//32 29//32 28//32 27//32
f 29//33 82//33 77//33
f 77//34 24//34 30//34
f 23//35 31//35 30//35 24//35
f 34//36 27//36 28//36 33//36
f 27//37 34//37 16//37 26//37
f 35//38 34//38 33//38 32//38
f 18//39 16//39 34//39 35//39
f 32//40 31//40 23//40 36//40
f 37//41 36//41 23//41 21//41
f 91//42 104//42 39//42 5//42
f 7//43 88//43 111//43 42//43
f 2//44 8//44 43//44 44//44
f 4//45 2//45 44//45 45//45
f 8//46 7//46 42//46 43//46
f 45//47 18//47 35//47 40//47
f 38//48 37//48 21//48 6//48
f 35//49 32//49 36//49 40//49
f 26//50 16//50 25//50 46//50
f 30//51 29//51 77//51
f 32//52 33//52 28//52 31//52
f 28//53 29//53 30//53 31//53
f 83//54 113//54 46//54 25//54
f 37//55 41//55 40//55 36//55
f 47//56 41//56 37//56 38//56
f 3//57 47//57 38//57 39//57
f 3//58 4//58 41//58 47//58
f 40//59 41//59 4//59 45//59
f 1//60 2//60 3//60
f 49//61 50//61 51//61
f 103//62 52//62 53//62 102//62
f 49//63 55//63 54//63 48//63
f 108//64 57//64 56//64 107//64
f 57//65 59//65 58//65 56//65
f 59//66 61//66 60//66 58//66
f 61//67 63//67 62//67 60//67
f 65//68 63//68 61//68 64//68
f 110//69 65//69 64//69 109//69
f 57//70 64//70 61//70 59//70
f 109//71 64//71 57//71 108//71
f 52//72 66//72 67//72 53//72
f 66//73 68//73 69//73 67//73
f 69//74 72//74 71//74 67//74
f 67//75 71//75 70//75 53//75
f 72//76 75//76 74//76 71//76
f 71//77 74//77 73//77 70//77
f 75//78 76//78 74//78
f 76//79 77//79 74//79
f 79//80 80//80 82//80 81//80
f 63//81 78//81 62//81
f 113//82 112//82 79//82 81//82
f 62//83 78//83 83//83 84//83
f 60//84 62//84 84//84 85//84
f 58//85 60//85 85//85 86//85
f 56//86 58//86 86//86 87//86
f 107//87 56//87 87//87 111//87
f 48//88 54//88 88//88 89//88
f 50//89 48//89 89//89 90//89
f 104//90 103//90 50//90 90//90
f 52//91 91//91 68//91 66//91
f 82//92 80//92 92//92 93//92
f 93//93 77//93 82//93
f 77//94 94//94 74//94
f 73//95 74//95 94//95 95//95
f 98//96 97//96 92//96 80//96
f 80//97 79//97 63//97 98//97
f 99//98 96//98 97//98 98//98
f 65//99 99//99 98//99 63//99
f 96//100 100//100 73//100 95//100
f 101//101 70//101 73//101 100//101
f 91//102 52//102 103//102 104//102
f 54//103 107//103 111//103 88//103
f 49//104 109//104 108//104 55//104
f 51//105 110//105 109//105 49//105
f 55//106 108//106 107//106 54//106
f 110//107 105//107 99//107 65//107
f 102//108 53//108 70//108 101//108
f 99//109 105//109 100//109 96//109
f 79//110 112//110 78//110 63//110
f 94//111 77//111 93//111
f 96//112 95//112 92//112 97//112
f 92//113 95//113 94//113 93//113
f 83//114 78//114 112//114 113//114
f 101//115 100//115 105//115 106//115
f 114//116 102//116 101//116 106//116
f 50//117 103//117 102//117 114//117
f 50//118 114//118 106//118 51//118
f 105//119 110//119 51//119 106//119
f 48//120 50//120 49//120
