# Blender v2.78 (sub 5) OBJ File: 'VRAvatars1.blend'
# www.blender.org
mtllib body.mtl
o body_Cube.001
v 0.212339 -0.810081 0.202337
v 0.354528 0.238046 0.294605
v 0.221219 -0.791630 -0.164021
v 0.350689 0.204124 -0.281359
v 0.277831 -0.630244 -0.188234
v 0.280959 -0.574098 0.253756
v 0.345737 -0.889383 0.076266
v 0.517252 0.210435 -0.008920
v 0.421380 -0.581213 0.075795
v 0.329484 0.472520 0.213829
v 0.329484 0.466728 -0.244930
v 0.484372 0.530859 -0.047775
v 0.348913 -0.049611 -0.234686
v 0.347402 -0.066087 0.282282
v 0.510400 -0.022229 0.043352
v 0.480739 0.228726 0.155809
v 0.352148 0.034466 0.289689
v 0.218968 0.566716 0.121660
v 0.098101 -0.884519 -0.220096
v 0.181952 0.207257 -0.367032
v 0.107053 -0.884343 0.258597
v 0.178528 0.237016 0.369046
v 0.143663 -0.571587 0.313373
v 0.138915 -0.628319 -0.270569
v 0.163790 -1.014937 0.080070
v 0.170446 0.497572 -0.329035
v 0.180399 0.523183 0.287977
v 0.245238 0.579846 -0.049062
v 0.176884 -0.059981 0.332612
v 0.182718 -0.045097 -0.320465
v 0.177338 0.037757 0.360905
v 0.453697 0.520806 0.086163
v 0.478109 0.063946 0.164689
v 0.328898 -0.884965 -0.049012
v 0.469823 0.206938 -0.148617
v 0.396419 -0.604690 -0.057930
v 0.442780 0.508307 -0.180866
v 0.467495 -0.039129 -0.120818
v 0.225860 0.547389 -0.220874
v 0.170869 -1.006687 -0.070913
v 0.000000 -0.903168 0.271325
v 0.000000 0.239073 0.372444
v 0.000000 -0.924466 -0.235164
v 0.000000 0.208516 -0.409887
v -0.212339 -0.810081 0.202337
v -0.354528 0.238046 0.294605
v -0.221219 -0.791630 -0.164021
v -0.350689 0.204124 -0.281359
v 0.000000 -0.569076 0.329619
v 0.000000 -0.610787 -0.307152
v -0.277831 -0.630244 -0.188234
v -0.280959 -0.574098 0.253756
v 0.000000 -1.069197 0.077874
v 0.000000 -0.053874 0.339570
v -0.345737 -0.889383 0.076266
v -0.517252 0.210435 -0.008920
v -0.421380 -0.581213 0.075795
v 0.000000 0.535228 0.308762
v 0.000000 0.505991 -0.370497
v -0.329484 0.472520 0.213829
v -0.329484 0.466728 -0.244930
v 0.000000 0.586782 -0.047775
v -0.484372 0.530859 -0.047775
v 0.000000 -0.042457 -0.364538
v -0.348913 -0.049611 -0.234686
v -0.347402 -0.066087 0.282282
v -0.510400 -0.022229 0.043352
v 0.000000 0.042457 0.364538
v -0.480739 0.228726 0.155809
v 0.000000 0.569850 0.140623
v -0.352148 0.034466 0.289689
v -0.218968 0.566716 0.121660
v -0.098101 -0.884519 -0.220096
v -0.181952 0.207257 -0.367032
v -0.107053 -0.884343 0.258597
v -0.178528 0.237016 0.369046
v -0.143663 -0.571587 0.313373
v -0.138915 -0.628319 -0.270569
v -0.163790 -1.014937 0.080070
v -0.170446 0.497572 -0.329035
v -0.180399 0.523183 0.287977
v -0.245238 0.579846 -0.049062
v -0.176884 -0.059981 0.332612
v -0.182718 -0.045097 -0.320465
v -0.177338 0.037757 0.360905
v -0.453697 0.520806 0.086163
v -0.478109 0.063946 0.164689
v -0.328898 -0.884965 -0.049012
v 0.000000 -1.051057 -0.098177
v -0.469823 0.206938 -0.148617
v -0.396419 -0.604690 -0.057930
v 0.000000 0.555549 -0.256959
v -0.442780 0.508307 -0.180866
v -0.467495 -0.039129 -0.120818
v -0.225860 0.547389 -0.220874
v -0.170869 -1.006687 -0.070913
vn 0.1244 -0.1777 0.9762
vn 0.4466 -0.1630 -0.8798
vn 0.7229 -0.0024 0.6909
vn 0.0190 -0.0406 0.9990
vn 0.5089 -0.5269 0.6807
vn 0.6383 0.0603 -0.7674
vn 0.6845 -0.2457 0.6863
vn 0.5209 -0.2666 -0.8109
vn 0.9619 -0.2362 -0.1379
vn 0.9678 0.1326 0.2141
vn 0.5892 -0.8059 -0.0578
vn 0.9577 -0.0653 -0.2803
vn 0.0601 0.9704 0.2337
vn 0.0439 0.9850 -0.1669
vn 0.4341 0.2850 0.8546
vn 0.2341 0.1314 -0.9633
vn 0.9676 -0.1547 -0.1995
vn 0.0713 -0.0306 0.9970
vn 0.8079 -0.1156 0.5778
vn 0.4772 -0.1192 -0.8707
vn 0.6838 0.2622 0.6810
vn 0.0208 -0.2646 0.9641
vn 0.7118 -0.0849 0.6972
vn 0.0253 0.9960 0.0852
vn 0.2029 0.9728 0.1119
vn 0.3226 -0.1759 0.9301
vn 0.2362 -0.0990 -0.9666
vn 0.3335 -0.0766 0.9396
vn 0.4669 0.1450 -0.8723
vn 0.0747 0.2403 0.9678
vn 0.2038 0.9555 -0.2131
vn 0.3360 0.8299 0.4453
vn 0.2877 -0.9551 -0.0708
vn 0.2275 -0.2201 -0.9486
vn 0.2254 -0.7447 0.6282
vn 0.3831 -0.0333 0.9231
vn 0.2265 -0.1746 -0.9582
vn 0.4771 -0.2543 0.8413
vn 0.9732 0.0121 0.2296
vn 0.3164 -0.6746 -0.6669
vn 0.3449 0.6462 -0.6808
vn 0.7200 -0.1539 -0.6767
vn 0.1218 0.8940 -0.4312
vn 0.7187 -0.1082 -0.6869
vn 0.5348 -0.4380 -0.7226
vn 0.6787 -0.2428 -0.6931
vn 0.9476 0.0554 -0.3145
vn 0.7974 -0.3712 0.4758
vn -0.1244 -0.1777 0.9762
vn -0.4466 -0.1630 -0.8798
vn -0.7229 -0.0024 0.6909
vn -0.0190 -0.0406 0.9990
vn -0.5089 -0.5269 0.6807
vn -0.6383 0.0603 -0.7674
vn -0.6845 -0.2457 0.6863
vn -0.5209 -0.2666 -0.8109
vn -0.9619 -0.2362 -0.1379
vn -0.9678 0.1326 0.2141
vn -0.5892 -0.8059 -0.0578
vn -0.9577 -0.0653 -0.2803
vn -0.0601 0.9704 0.2337
vn -0.0439 0.9850 -0.1669
vn -0.4341 0.2850 0.8546
vn -0.2341 0.1314 -0.9633
vn -0.9676 -0.1547 -0.1995
vn -0.0713 -0.0306 0.9970
vn -0.8079 -0.1156 0.5778
vn -0.4772 -0.1192 -0.8707
vn -0.6838 0.2622 0.6810
vn -0.0208 -0.2646 0.9641
vn -0.7118 -0.0849 0.6972
vn -0.0253 0.9960 0.0852
vn -0.2029 0.9728 0.1119
vn -0.3226 -0.1759 0.9301
vn -0.2362 -0.0990 -0.9666
vn -0.3335 -0.0766 0.9396
vn -0.4669 0.1450 -0.8723
vn -0.0747 0.2403 0.9678
vn -0.2038 0.9555 -0.2131
vn -0.3360 0.8299 0.4453
vn -0.2877 -0.9551 -0.0708
vn -0.2275 -0.2201 -0.9486
vn -0.2254 -0.7447 0.6282
vn -0.3831 -0.0333 0.9231
vn -0.2265 -0.1746 -0.9582
vn -0.4771 -0.2543 0.8413
vn -0.9732 0.0121 0.2296
vn -0.3164 -0.6746 -0.6669
vn -0.3449 0.6462 -0.6808
vn -0.7200 -0.1539 -0.6767
vn -0.1218 0.8940 -0.4312
vn -0.7187 -0.1082 -0.6869
vn -0.5348 -0.4380 -0.7226
vn -0.6787 -0.2428 -0.6931
vn -0.9476 0.0554 -0.3145
vn -0.7974 -0.3712 0.4758
usemtl None
s off
f 21//1 23//1 49//1 41//1
f 30//2 20//2 4//2 13//2
f 33//3 16//3 2//3 17//3
f 31//4 22//4 42//4 68//4
f 25//5 7//5 1//5 21//5
f 35//6 4//6 11//6 37//6
f 7//7 9//7 6//7 1//7
f 19//8 24//8 5//8 3//8
f 34//9 36//9 9//9 7//9
f 16//10 8//10 12//10 32//10
f 40//11 34//11 7//11 25//11
f 38//12 35//12 8//12 15//12
f 18//13 70//13 58//13 27//13
f 39//14 92//14 62//14 28//14
f 22//15 2//15 10//15 27//15
f 20//16 44//16 59//16 26//16
f 36//17 38//17 15//17 9//17
f 23//18 29//18 54//18 49//18
f 9//19 15//19 14//19 6//19
f 24//20 30//20 13//20 5//20
f 2//21 16//21 32//21 10//21
f 29//22 31//22 68//22 54//22
f 33//23 17//23 14//23
f 28//24 62//24 70//24 18//24
f 12//25 28//25 18//25 32//25
f 14//26 17//26 31//26 29//26
f 50//27 64//27 30//27 24//27
f 6//28 14//28 29//28 23//28
f 4//29 20//29 26//29 11//29
f 42//30 22//30 27//30 58//30
f 37//31 39//31 28//31 12//31
f 32//32 18//32 27//32 10//32
f 89//33 40//33 25//33 53//33
f 43//34 50//34 24//34 19//34
f 53//35 25//35 21//35 41//35
f 17//36 2//36 22//36 31//36
f 64//37 44//37 20//37 30//37
f 1//38 6//38 23//38 21//38
f 15//39 8//39 16//39 33//39
f 43//40 19//40 40//40 89//40
f 11//41 26//41 39//41 37//41
f 5//42 13//42 38//42 36//42
f 26//43 59//43 92//43 39//43
f 13//44 4//44 35//44 38//44
f 19//45 3//45 34//45 40//45
f 3//46 5//46 36//46 34//46
f 8//47 35//47 37//47 12//47
f 15//48 33//48 14//48
f 75//49 41//49 49//49 77//49
f 84//50 65//50 48//50 74//50
f 87//51 71//51 46//51 69//51
f 85//52 68//52 42//52 76//52
f 79//53 75//53 45//53 55//53
f 90//54 93//54 61//54 48//54
f 55//55 45//55 52//55 57//55
f 73//56 47//56 51//56 78//56
f 88//57 55//57 57//57 91//57
f 69//58 86//58 63//58 56//58
f 96//59 79//59 55//59 88//59
f 94//60 67//60 56//60 90//60
f 72//61 81//61 58//61 70//61
f 95//62 82//62 62//62 92//62
f 76//63 81//63 60//63 46//63
f 74//64 80//64 59//64 44//64
f 91//65 57//65 67//65 94//65
f 77//66 49//66 54//66 83//66
f 57//67 52//67 66//67 67//67
f 78//68 51//68 65//68 84//68
f 46//69 60//69 86//69 69//69
f 83//70 54//70 68//70 85//70
f 87//71 66//71 71//71
f 82//72 72//72 70//72 62//72
f 63//73 86//73 72//73 82//73
f 66//74 83//74 85//74 71//74
f 50//75 78//75 84//75 64//75
f 52//76 77//76 83//76 66//76
f 48//77 61//77 80//77 74//77
f 42//78 58//78 81//78 76//78
f 93//79 63//79 82//79 95//79
f 86//80 60//80 81//80 72//80
f 89//81 53//81 79//81 96//81
f 43//82 73//82 78//82 50//82
f 53//83 41//83 75//83 79//83
f 71//84 85//84 76//84 46//84
f 64//85 84//85 74//85 44//85
f 45//86 75//86 77//86 52//86
f 67//87 87//87 69//87 56//87
f 43//88 89//88 96//88 73//88
f 61//89 93//89 95//89 80//89
f 51//90 91//90 94//90 65//90
f 80//91 95//91 92//91 59//91
f 65//92 94//92 90//92 48//92
f 73//93 96//93 88//93 47//93
f 47//94 88//94 91//94 51//94
f 56//95 63//95 93//95 90//95
f 67//96 66//96 87//96
